<?xml version="1.0" encoding="utf-8"?>
<!-- Generator: Adobe Illustrator 19.0.0, SVG Export Plug-In . SVG Version: 6.00 Build 0)  -->
<svg version="1.1" id="Layer_2" xmlns="http://www.w3.org/2000/svg" xmlns:xlink="http://www.w3.org/1999/xlink" x="0px" y="0px"
	 viewBox="0 0 2150.6 374.4" style="enable-background:new 0 0 2150.6 374.4;" xml:space="preserve">
<style type="text/css">
	.st0{fill:#333333;}
	.st1{fill:#07E0EA;}
</style>
<g>
	<path class="st0" d="M176.3,111.2c-4.4-5.5-10-9.9-17.1-13.2c-7-3.3-13.8-4.9-20.3-4.9c-3.4,0-6.8,0.3-10.2,0.9
		c-3.5,0.6-6.6,1.7-9.3,3.4c-2.8,1.7-5.1,3.9-7,6.5c-1.9,2.7-2.8,6.1-2.8,10.2c0,3.6,0.7,6.5,2.2,8.9c1.5,2.4,3.7,4.5,6.5,6.2
		c2.9,1.8,6.3,3.4,10.2,4.9c4,1.5,8.4,3,13.4,4.6c7.1,2.4,14.5,5,22.3,7.9c7.7,2.9,14.7,6.7,21.1,11.4c6.3,4.7,11.6,10.6,15.7,17.7
		c4.2,7,6.2,15.8,6.2,26.3c0,12.1-2.2,22.5-6.7,31.3c-4.5,8.8-10.4,16.1-18,21.8c-7.5,5.7-16.1,10-25.8,12.8
		c-9.7,2.8-19.7,4.2-30,4.2c-15,0-29.6-2.6-43.6-7.9c-14.1-5.2-25.7-12.7-35-22.4L81.3,208c5.1,6.3,11.9,11.6,20.3,15.9
		c8.4,4.3,16.8,6.4,25.1,6.4c3.8,0,7.4-0.4,11-1.2c3.6-0.8,6.7-2.1,9.3-3.9c2.7-1.8,4.8-4.2,6.4-7.1c1.6-3,2.4-6.5,2.4-10.7
		c0-4-1-7.3-3-10.1c-2-2.8-4.8-5.3-8.5-7.6c-3.7-2.3-8.2-4.3-13.7-6.2c-5.4-1.9-11.6-3.9-18.5-6.1c-6.7-2.2-13.3-4.7-19.7-7.7
		c-6.4-3-12.2-6.8-17.2-11.4c-5-4.6-9.1-10.3-12.2-16.9c-3.1-6.6-4.6-14.7-4.6-24.2c0-11.7,2.4-21.7,7.1-30
		c4.7-8.3,11-15.1,18.7-20.5c7.7-5.3,16.4-9.2,26.1-11.7c9.7-2.5,19.5-3.7,29.4-3.7c11.9,0,24,2.2,36.4,6.5
		c12.4,4.4,23.2,10.8,32.5,19.3L176.3,111.2z"/>
	<path class="st0" d="M386.9,192.2c0,12.1-2.2,23-6.5,32.8c-4.4,9.8-10.3,18.1-17.8,24.9c-7.5,6.8-16.2,12.1-26.1,15.9
		c-9.9,3.8-20.5,5.6-31.8,5.6c-11.1,0-21.6-1.9-31.6-5.6c-10-3.8-18.7-9.1-26.1-15.9c-7.4-6.8-13.3-15.1-17.7-24.9
		c-4.4-9.8-6.5-20.7-6.5-32.8s2.2-23,6.5-32.6c4.4-9.7,10.2-17.9,17.7-24.6c7.4-6.7,16.1-11.9,26.1-15.4c5.5-2,11.2-3.4,17.1-4.3
		c1.8,3.3,6.9,13,7.4,14.6c0.6,1.9-4.5,21.8-17.2,34.6v0c-0.6,0.6-1.2,1.2-1.7,1.9c-2.9,3.5-5,7.5-6.5,12c-1.5,4.6-2.2,9.2-2.2,14
		s0.7,9.4,2.2,14c1.5,4.5,3.7,8.7,6.7,12.3c3,3.7,6.6,6.6,11,8.8c4.4,2.2,9.4,3.3,15.1,3.3s10.8-1.1,15.1-3.3c4.3-2.2,8-5.1,11-8.8
		c3-3.7,5.2-7.8,6.7-12.3c1.5-4.5,2.2-9.2,2.2-14s-0.8-9.4-2.4-14c-1.6-4.5-3.9-8.6-6.8-12c-0.5-0.6-1-1.2-1.6-1.7l0,0
		c-12.7-12.7-18-32.8-17.4-34.7c0.5-1.6,5.7-11.4,7.4-14.6c6,0.9,11.7,2.3,17.2,4.3c9.9,3.6,18.6,8.7,26.1,15.4
		c7.5,6.7,13.5,14.9,17.8,24.6C384.7,169.3,386.9,180.2,386.9,192.2z"/>
	<path class="st0" d="M568.5,192.2c0,12.1-2.2,23-6.5,32.8c-4.4,9.8-10.3,18.1-17.8,24.9c-7.5,6.8-16.2,12.1-26.1,15.9
		c-9.9,3.8-20.5,5.6-31.8,5.6c-11.1,0-21.6-1.9-31.6-5.6c-10-3.8-18.7-9.1-26.1-15.9c-7.4-6.8-13.3-15.1-17.7-24.9
		c-4.4-9.8-6.5-20.7-6.5-32.8s2.2-23,6.5-32.6c4.4-9.7,10.2-17.9,17.7-24.6c7.4-6.7,16.1-11.9,26.1-15.4c5.5-2,11.2-3.4,17.1-4.3
		c1.8,3.3,6.9,13,7.4,14.6c0.6,1.9-4.5,21.8-17.2,34.6v0c-0.6,0.6-1.2,1.2-1.7,1.9c-2.9,3.5-5,7.5-6.5,12c-1.5,4.6-2.2,9.2-2.2,14
		s0.7,9.4,2.2,14c1.5,4.5,3.7,8.7,6.7,12.3c3,3.7,6.6,6.6,11,8.8c4.4,2.2,9.4,3.3,15.1,3.3s10.8-1.1,15.1-3.3c4.3-2.2,8-5.1,11-8.8
		c3-3.7,5.2-7.8,6.7-12.3c1.5-4.5,2.2-9.2,2.2-14s-0.8-9.4-2.4-14c-1.6-4.5-3.9-8.6-6.8-12c-0.5-0.6-1-1.2-1.6-1.7l0,0
		c-12.7-12.7-18-32.8-17.4-34.7c0.5-1.6,5.7-11.4,7.4-14.6c6,0.9,11.7,2.3,17.2,4.3c9.9,3.6,18.6,8.7,26.1,15.4
		c7.5,6.7,13.5,14.9,17.8,24.6C566.3,169.3,568.5,180.2,568.5,192.2z"/>
	<path class="st0" d="M756.4,192.2c0,10.3-1.6,20.2-4.7,29.7c-3.2,9.5-7.8,17.9-13.8,25.1c-6,7.2-13.4,13-22.1,17.4
		c-8.7,4.3-18.6,6.5-29.7,6.5c-9.1,0-17.7-1.8-25.8-5.5c-8.1-3.7-14.4-8.7-19-15h-0.6V338h-48.7v-219h46.3V137h0.9
		c4.5-5.9,10.8-11.1,18.8-15.6c8-4.5,17.5-6.7,28.3-6.7c10.7,0,20.4,2.1,29.1,6.2c8.7,4.2,16.1,9.8,22.1,16.9
		c6,7.1,10.7,15.4,13.9,24.8C754.7,172.1,756.4,182,756.4,192.2z M709.2,192.2c0-4.7-0.7-9.4-2.2-13.9c-1.5-4.5-3.7-8.6-6.5-12
		c-2.9-3.5-6.5-6.3-10.8-8.5c-4.4-2.2-9.4-3.3-15.1-3.3c-5.5,0-10.5,1.1-14.8,3.3c-4.4,2.2-8.1,5-11.1,8.6
		c-3.1,3.6-5.4,7.6-7.1,12.2c-1.7,4.6-2.5,9.2-2.5,13.9s0.8,9.4,2.5,14c1.7,4.6,4.1,8.6,7.1,12.2c3.1,3.6,6.8,6.4,11.1,8.6
		c4.4,2.2,9.3,3.3,14.8,3.3c5.7,0,10.8-1.1,15.1-3.3c4.3-2.2,8-5,10.8-8.6c2.9-3.6,5-7.7,6.5-12.3
		C708.4,201.7,709.2,197,709.2,192.2z"/>
	<path class="st0" d="M927.5,194.6c0,2,0,4,0,5.9c0,2-0.1,3.9-0.3,5.6H820c0.4,4.2,1.6,7.9,3.7,11.3c2.1,3.4,4.7,6.3,8,8.8
		c3.3,2.5,6.9,4.4,11,5.8c4.1,1.4,8.3,2.1,12.6,2.1c7.7,0,14.2-1.4,19.6-4.3c5.3-2.9,9.7-6.6,13.1-11.1l33.8,21.4
		c-6.9,10.1-16.1,17.9-27.5,23.3c-11.4,5.4-24.6,8.2-39.6,8.2c-11.1,0-21.6-1.7-31.5-5.2c-9.9-3.5-18.5-8.5-26-15.1
		c-7.4-6.6-13.3-14.8-17.5-24.5c-4.3-9.7-6.4-20.8-6.4-33.2c0-12.1,2.1-23,6.2-32.8c4.2-9.8,9.8-18.1,16.9-24.9s15.5-12.1,25.2-15.9
		c9.7-3.8,20.2-5.6,31.5-5.6c10.9,0,20.9,1.8,30,5.5c9.1,3.7,16.9,9,23.4,15.9c6.5,6.9,11.6,15.3,15.3,25.2
		C925.7,170.7,927.5,182,927.5,194.6z M882.7,175.9c0-7.7-2.4-14.3-7.3-19.9c-4.9-5.5-12.1-8.3-21.8-8.3c-4.7,0-9.1,0.7-13.1,2.2
		c-4,1.5-7.4,3.5-10.4,6.1c-3,2.6-5.3,5.6-7.1,9.1c-1.8,3.5-2.8,7.1-3,10.8H882.7z"/>
	<path class="st0" d="M1045.9,159c-2.2-0.6-4.3-1-6.4-1.2c-2.1-0.2-4.1-0.3-6.1-0.3c-6.5,0-12,1.2-16.5,3.6c-4.5,2.4-8,5.2-10.7,8.6
		c-2.7,3.4-4.6,7-5.8,11c-1.2,3.9-1.8,7.4-1.8,10.4v75.8H950V119.1h46.9v21.4h0.6c3.8-7.6,9.1-13.7,16-18.5c6.9-4.8,14.9-7.2,24-7.2
		c2,0,3.9,0.1,5.8,0.3c1.9,0.2,3.4,0.5,4.6,0.9L1045.9,159z"/>
	<path class="st1" d="M1140.7,155.1v56.6c0,7,1.3,12.2,4,15.6c2.7,3.5,7.5,5.2,14.4,5.2c2.4,0,4.9-0.2,7.6-0.6
		c2.7-0.4,4.9-1,6.7-1.8l0.6,35.6c-3.4,1.2-7.6,2.2-12.8,3.1c-5.1,0.9-10.3,1.3-15.4,1.3c-9.9,0-18.2-1.2-24.9-3.7
		c-6.7-2.5-12.1-6-16.2-10.7c-4.1-4.7-7-10.2-8.8-16.7c-1.8-6.4-2.7-13.6-2.7-21.6v-62.5h-23.7v-36.2h23.4V80h47.8v38.9h34.7v36.2
		H1140.7z"/>
	<path class="st1" d="M1288.9,266.7v-80.1c0-4.2-0.3-8.1-0.9-11.9c-0.6-3.8-1.7-7.1-3.4-9.9c-1.7-2.9-3.9-5.1-6.7-6.8
		c-2.8-1.7-6.3-2.5-10.7-2.5c-8.5,0-15,3-19.6,9.1c-4.6,6-6.8,13.5-6.8,22.4v79.8h-48.7V42.4h48.7v95.3h0.6
		c3.4-5.9,8.7-11.2,16-15.9c7.3-4.6,16.1-7,26.4-7c10.1,0,18.6,1.8,25.4,5.3s12.4,8.2,16.6,13.8c4.3,5.6,7.3,12.1,9.2,19.4
		c1.9,7.3,2.8,14.6,2.8,22v91.4H1288.9z"/>
	<path class="st1" d="M1513.9,194.6c0,2,0,4,0,5.9c0,2-0.1,3.9-0.3,5.6h-107.1c0.4,4.2,1.6,7.9,3.7,11.3c2.1,3.4,4.7,6.3,8,8.8
		c3.3,2.5,6.9,4.4,11,5.8c4.1,1.4,8.3,2.1,12.6,2.1c7.7,0,14.2-1.4,19.6-4.3c5.3-2.9,9.7-6.6,13.1-11.1l33.8,21.4
		c-6.9,10.1-16.1,17.9-27.5,23.3c-11.4,5.4-24.6,8.2-39.6,8.2c-11.1,0-21.6-1.7-31.5-5.2c-9.9-3.5-18.5-8.5-26-15.1
		c-7.4-6.6-13.3-14.8-17.5-24.5c-4.3-9.7-6.4-20.8-6.4-33.2c0-12.1,2.1-23,6.2-32.8c4.2-9.8,9.8-18.1,16.9-24.9s15.5-12.1,25.2-15.9
		c9.7-3.8,20.2-5.6,31.5-5.6c10.9,0,20.9,1.8,30,5.5c9.1,3.7,16.9,9,23.4,15.9c6.5,6.9,11.6,15.3,15.3,25.2
		C1512.1,170.7,1513.9,182,1513.9,194.6z M1469.1,175.9c0-7.7-2.4-14.3-7.3-19.9c-4.9-5.5-12.1-8.3-21.8-8.3
		c-4.7,0-9.1,0.7-13.1,2.2c-4,1.5-7.4,3.5-10.4,6.1c-3,2.6-5.3,5.6-7.1,9.1c-1.8,3.5-2.8,7.1-3,10.8H1469.1z"/>
	<path class="st1" d="M1726.5,266.7V186c0-4.2-0.3-8.2-0.9-12c-0.6-3.9-1.7-7.2-3.3-9.9c-1.6-2.8-3.7-5-6.4-6.7
		c-2.7-1.7-6.2-2.5-10.5-2.5c-4.2,0-7.8,0.9-10.8,2.7c-3.1,1.8-5.6,4.2-7.7,7.1c-2.1,3-3.6,6.4-4.6,10.2c-1,3.9-1.5,7.9-1.5,12v79.8
		h-48.7v-84.3c0-8.5-1.7-15.2-5-20.2c-3.4-4.9-8.7-7.4-16-7.4c-7.7,0-13.7,3.1-18,9.2c-4.3,6.1-6.4,13.7-6.4,22.6v80.1h-49V118.9
		h47.2v20.5h0.6c1.8-3.2,4-6.2,6.7-9.2c2.7-3,5.9-5.6,9.6-7.9c3.8-2.3,8-4.1,12.6-5.5c4.6-1.4,9.7-2.1,15.3-2.1
		c10.7,0,19.7,2.2,27.2,6.5c7.4,4.4,13.2,10.6,17.4,18.7c4.9-7.7,11.3-13.8,19-18.4c7.7-4.5,17.1-6.8,28.2-6.8
		c10.1,0,18.5,1.8,25.4,5.5c6.8,3.7,12.3,8.4,16.5,14.2c4.2,5.8,7.2,12.4,9.1,19.6c1.9,7.2,2.8,14.3,2.8,21.2v91.4H1726.5z"/>
	<path class="st1" d="M1951.9,194.6c0,2,0,4,0,5.9c0,2-0.1,3.9-0.3,5.6h-107.1c0.4,4.2,1.6,7.9,3.7,11.3c2.1,3.4,4.7,6.3,8,8.8
		c3.3,2.5,6.9,4.4,11,5.8c4.1,1.4,8.3,2.1,12.6,2.1c7.7,0,14.2-1.4,19.6-4.3c5.3-2.9,9.7-6.6,13.1-11.1l33.8,21.4
		c-6.9,10.1-16.1,17.9-27.5,23.3c-11.4,5.4-24.6,8.2-39.6,8.2c-11.1,0-21.6-1.7-31.5-5.2c-9.9-3.5-18.5-8.5-26-15.1
		c-7.4-6.6-13.3-14.8-17.5-24.5c-4.3-9.7-6.4-20.8-6.4-33.2c0-12.1,2.1-23,6.2-32.8c4.2-9.8,9.8-18.1,16.9-24.9s15.5-12.1,25.2-15.9
		c9.7-3.8,20.2-5.6,31.5-5.6c10.9,0,20.9,1.8,30,5.5c9.1,3.7,16.9,9,23.4,15.9c6.5,6.9,11.6,15.3,15.3,25.2
		C1950.1,170.7,1951.9,182,1951.9,194.6z M1907.1,175.9c0-7.7-2.4-14.3-7.3-19.9c-4.9-5.5-12.1-8.3-21.8-8.3
		c-4.7,0-9.1,0.7-13.1,2.2c-4,1.5-7.4,3.5-10.4,6.1c-3,2.6-5.3,5.6-7.1,9.1c-1.8,3.5-2.8,7.1-3,10.8H1907.1z"/>
	<path class="st1" d="M2062.7,162.6c-4-3.8-8.6-6.9-14-9.5c-5.3-2.6-11-3.9-16.9-3.9c-4.6,0-8.8,0.9-12.6,2.7
		c-3.9,1.8-5.8,4.9-5.8,9.2c0,4.2,2.1,7.1,6.4,8.9c4.3,1.8,11.1,3.8,20.6,5.9c5.5,1.2,11.1,2.9,16.8,5c5.6,2.2,10.7,5,15.3,8.6
		c4.5,3.6,8.2,7.9,11,13.1c2.8,5.1,4.2,11.3,4.2,18.4c0,9.3-1.9,17.2-5.6,23.6c-3.8,6.4-8.7,11.6-14.7,15.6c-6,4-12.8,6.8-20.3,8.6
		c-7.5,1.8-15,2.7-22.6,2.7c-12.1,0-23.9-1.9-35.5-5.8s-21.2-9.5-28.9-17.1l27.3-28.8c4.3,4.7,9.7,8.7,16,11.9
		c6.3,3.2,13.1,4.7,20.2,4.7c4,0,7.9-0.9,11.7-2.8c3.9-1.9,5.8-5.2,5.8-9.9c0-4.5-2.4-7.9-7.1-10.1c-4.7-2.2-12.2-4.5-22.3-6.8
		c-5.1-1.2-10.3-2.8-15.4-4.7c-5.1-2-9.7-4.6-13.8-8c-4.1-3.4-7.4-7.5-9.9-12.5c-2.6-4.9-3.9-10.9-3.9-17.8c0-8.9,1.9-16.5,5.6-22.7
		c3.8-6.2,8.6-11.3,14.5-15.3c5.9-4,12.5-6.9,19.7-8.8c7.2-1.9,14.4-2.8,21.5-2.8c11.1,0,21.9,1.7,32.5,5.2
		c10.6,3.5,19.5,8.7,26.9,15.6L2062.7,162.6z"/>
</g>
</svg>
